<?xml version="1.0" encoding="utf-8"?>
<!-- Generator: Adobe Illustrator 21.0.0, SVG Export Plug-In . SVG Version: 6.00 Build 0)  -->
<svg version="1.1" id="Layer_1" xmlns="http://www.w3.org/2000/svg" xmlns:xlink="http://www.w3.org/1999/xlink" x="0px" y="0px"
	 width="238.4px" height="35.4px" viewBox="0 0 238.4 35.4" style="enable-background:new 0 0 238.4 35.4;" xml:space="preserve">
<style type="text/css">
	.st0{fill:#5088D8;}
	.st1{fill:#001738;}
	.st2{fill:#0E47A1;}
</style>
<g>
	<polygon class="st0" points="19.8,35.4 19.8,0 46.8,3.3 46.8,8.2 44.4,8.2 44.4,5.6 22.5,3.1 22.5,32.5 44.1,31.1 44.1,4.2 
		46.8,4.2 46.8,33.6 	"/>
	<g>
		<path class="st1" d="M75.6,28.8v-16l-7.1,12.4h-1.1l-7.1-12.4v16h-1.9V9.3h2l7.6,13.3l7.6-13.3h1.9v19.5H75.6z"/>
		<path class="st1" d="M90.2,28.9c-1.4,0-2.6-0.3-3.7-0.8c-1.1-0.6-2.1-1.3-2.9-2.2c-0.8-0.9-1.4-2-1.9-3.2
			c-0.4-1.2-0.7-2.4-0.7-3.6c0-1.3,0.2-2.5,0.7-3.7c0.5-1.2,1.1-2.2,1.9-3.2c0.8-0.9,1.8-1.6,2.9-2.2c1.1-0.5,2.3-0.8,3.6-0.8
			c1.4,0,2.6,0.3,3.7,0.9c1.1,0.6,2.1,1.3,2.9,2.3c0.8,0.9,1.4,2,1.9,3.2c0.4,1.2,0.7,2.4,0.7,3.6c0,1.3-0.2,2.5-0.7,3.7
			c-0.5,1.2-1.1,2.2-1.9,3.1c-0.8,0.9-1.8,1.6-2.9,2.2C92.7,28.7,91.5,28.9,90.2,28.9z M83,19.1c0,1.1,0.2,2.1,0.5,3.1
			c0.3,1,0.8,1.8,1.5,2.6c0.6,0.8,1.4,1.4,2.3,1.8c0.9,0.4,1.9,0.7,2.9,0.7c1.1,0,2.1-0.2,3-0.7c0.9-0.5,1.7-1.1,2.3-1.9
			c0.6-0.8,1.1-1.6,1.4-2.6c0.3-1,0.5-2,0.5-3c0-1.1-0.2-2.1-0.5-3.1c-0.4-1-0.9-1.8-1.5-2.6c-0.6-0.7-1.4-1.3-2.3-1.8
			c-0.9-0.4-1.8-0.7-2.9-0.7c-1.1,0-2.1,0.2-3,0.7c-0.9,0.5-1.7,1.1-2.3,1.9c-0.6,0.8-1.1,1.6-1.4,2.6C83.2,17.1,83,18.1,83,19.1z"
			/>
		<path class="st1" d="M101.7,9.3l7,17.1l6.9-17.1h2l-8.1,19.5h-1.7L99.7,9.3H101.7z"/>
		<path class="st1" d="M133.3,27.1v1.7h-13.1V9.3H133V11h-10.9v7h9.5v1.6h-9.5v7.4H133.3z"/>
		<path class="st1" d="M136.2,28.8V9.3h8.2c0.8,0,1.6,0.2,2.3,0.5c0.7,0.4,1.3,0.8,1.8,1.4c0.5,0.6,0.9,1.2,1.2,2
			c0.3,0.7,0.4,1.5,0.4,2.2c0,0.7-0.1,1.4-0.3,2c-0.2,0.6-0.5,1.2-0.9,1.8c-0.4,0.5-0.8,1-1.4,1.3c-0.5,0.4-1.1,0.6-1.8,0.7l4.8,7.5
			h-2.2l-4.6-7.2h-5.8v7.2H136.2z M138.2,19.9h6.4c0.6,0,1.1-0.1,1.5-0.4c0.5-0.2,0.9-0.6,1.2-1c0.3-0.4,0.6-0.9,0.8-1.4
			c0.2-0.5,0.3-1.1,0.3-1.7c0-0.6-0.1-1.1-0.3-1.7c-0.2-0.5-0.5-1-0.9-1.4c-0.4-0.4-0.8-0.7-1.3-1c-0.5-0.2-1-0.4-1.5-0.4h-6.2V19.9
			z"/>
		<path class="st1" d="M165.3,13c-0.5-0.6-1.3-1.1-2.2-1.5c-0.9-0.4-2-0.6-3.1-0.6c-1.7,0-3,0.3-3.8,1c-0.8,0.6-1.2,1.5-1.2,2.6
			c0,0.6,0.1,1.1,0.3,1.4c0.2,0.4,0.5,0.7,1,1s1,0.5,1.7,0.7c0.7,0.2,1.5,0.4,2.4,0.6c1,0.2,2,0.5,2.8,0.7c0.8,0.3,1.5,0.6,2.1,1
			c0.6,0.4,1,0.9,1.3,1.5c0.3,0.6,0.5,1.3,0.5,2.2c0,0.9-0.2,1.7-0.5,2.3c-0.3,0.7-0.8,1.2-1.5,1.6c-0.6,0.4-1.4,0.8-2.2,1
			c-0.9,0.2-1.8,0.3-2.8,0.3c-3,0-5.6-0.9-7.8-2.8l1-1.6c0.3,0.4,0.8,0.7,1.2,1c0.5,0.3,1,0.6,1.6,0.9c0.6,0.2,1.2,0.4,1.9,0.6
			c0.7,0.1,1.4,0.2,2.1,0.2c1.6,0,2.8-0.3,3.6-0.8c0.9-0.6,1.3-1.4,1.3-2.5c0-0.6-0.1-1.1-0.4-1.5c-0.2-0.4-0.6-0.8-1.1-1.1
			c-0.5-0.3-1.1-0.6-1.8-0.8c-0.7-0.2-1.6-0.4-2.5-0.7c-1-0.2-1.9-0.5-2.7-0.7c-0.8-0.3-1.4-0.6-1.9-1c-0.5-0.4-0.9-0.8-1.2-1.4
			c-0.3-0.5-0.4-1.2-0.4-2c0-0.9,0.2-1.7,0.5-2.4c0.3-0.7,0.8-1.3,1.4-1.8c0.6-0.5,1.4-0.8,2.2-1.1c0.8-0.2,1.8-0.4,2.8-0.4
			c1.3,0,2.5,0.2,3.5,0.6c1,0.4,1.9,0.9,2.8,1.7L165.3,13z"/>
		<path class="st1" d="M184.8,12.7h-6.2v16.1h-3.8V12.7h-6.2V9.3h16.2V12.7z"/>
		<path class="st1" d="M200.4,25.5v3.3h-13.5V9.3h13.3v3.3h-9.5v4.7h8.2v3.1h-8.2v5.1H200.4z"/>
		<path class="st1" d="M202.1,18.9c0-1.2,0.2-2.4,0.6-3.5c0.4-1.2,1.1-2.2,1.9-3.1c0.8-0.9,1.8-1.7,3-2.2c1.2-0.6,2.5-0.8,4.1-0.8
			c1.8,0,3.3,0.4,4.6,1.2c1.3,0.8,2.3,1.8,2.9,3.1l-2.9,2c-0.3-0.5-0.6-1-0.9-1.4c-0.4-0.4-0.8-0.7-1.2-0.9
			c-0.4-0.2-0.9-0.4-1.3-0.5c-0.5-0.1-0.9-0.2-1.3-0.2c-1,0-1.8,0.2-2.5,0.6c-0.7,0.4-1.3,0.9-1.8,1.5c-0.5,0.6-0.8,1.3-1.1,2.1
			c-0.2,0.8-0.4,1.5-0.4,2.3c0,0.9,0.1,1.7,0.4,2.5c0.3,0.8,0.7,1.5,1.2,2.1c0.5,0.6,1.1,1.1,1.8,1.5c0.7,0.4,1.5,0.5,2.3,0.5
			c0.4,0,0.9-0.1,1.4-0.2c0.5-0.1,0.9-0.3,1.4-0.5c0.4-0.2,0.8-0.5,1.2-0.9c0.4-0.4,0.7-0.8,0.9-1.4l3.1,1.8
			c-0.3,0.7-0.8,1.4-1.3,1.9c-0.6,0.6-1.2,1-1.9,1.4c-0.7,0.4-1.5,0.7-2.3,0.9c-0.8,0.2-1.6,0.3-2.4,0.3c-1.4,0-2.7-0.3-3.8-0.9
			c-1.2-0.6-2.1-1.3-3-2.3c-0.8-0.9-1.5-2-1.9-3.2C202.3,21.4,202.1,20.2,202.1,18.9z"/>
		<path class="st1" d="M238.4,9.3v19.5h-3.8v-8.3h-8.8v8.3h-3.8V9.3h3.8v7.9h8.8V9.3H238.4z"/>
	</g>
	<g>
		<path class="st2" d="M42.5,12.3l-1.4-0.2c-0.1-0.4-0.3-0.9-0.5-1.2l0.9-1.1L39.8,8l-1.1,0.8c-0.4-0.3-0.8-0.5-1.2-0.6l-0.2-1.4
			c0,0,0-0.1-0.1-0.1l-2.1-0.2c0,0-0.1,0-0.1,0.1L34.9,8c-0.4,0.1-0.8,0.3-1.2,0.5l-1.1-1c0,0-0.1,0-0.1,0L31,9.1c0,0,0,0.1,0,0.1
			l0.8,1.2c-0.2,0.4-0.4,0.9-0.5,1.3L30,11.9c0,0-0.1,0.1-0.1,0.1v2.4c0,0.1,0,0.1,0.1,0.1l1.4,0.2c0.1,0.5,0.3,0.9,0.5,1.4L31,17.3
			c0,0,0,0.1,0,0.1l1.5,1.6c0,0,0.1,0,0.1,0l1.1-1c0.4,0.2,0.8,0.4,1.2,0.5l0.2,1.5c0,0,0,0.1,0.1,0.1l2.1-0.1c0,0,0.1,0,0.1-0.1
			l0.2-1.4c0.4-0.1,0.8-0.3,1.2-0.6l1.1,0.8c0,0,0.1,0,0.1,0l1.5-1.6c0,0,0-0.1,0-0.1L40.6,16c0.2-0.4,0.4-0.8,0.5-1.2l1.4-0.2V12.3
			z M37.6,16.4c-2.8,1.4-5.4-1.5-4.2-4.6c0.3-0.7,0.8-1.3,1.5-1.5c2.8-1.1,5.4,1.7,4.2,4.6C38.8,15.5,38.2,16.1,37.6,16.4z"/>
	</g>
	<ellipse class="st2" cx="36.2" cy="13.4" rx="1.6" ry="1.7"/>
	<g>
		<path class="st2" d="M33.8,23.8l-0.9-0.1c-0.1-0.3-0.2-0.5-0.3-0.8l0.6-0.7l-1-1.1l-0.7,0.5c-0.2-0.2-0.5-0.3-0.8-0.4l-0.1-0.9
			c0,0,0-0.1-0.1-0.1l-1.3-0.1c0,0-0.1,0-0.1,0l-0.1,0.9c-0.3,0.1-0.5,0.2-0.8,0.3l-0.7-0.6c0,0-0.1,0-0.1,0l-0.9,1c0,0,0,0.1,0,0.1
			l0.5,0.8c-0.1,0.3-0.2,0.5-0.3,0.8l-0.8,0.1c0,0-0.1,0-0.1,0.1v1.5c0,0,0,0.1,0.1,0.1l0.8,0.1c0.1,0.3,0.2,0.6,0.3,0.8l-0.5,0.8
			c0,0,0,0.1,0,0.1l0.9,1c0,0,0.1,0,0.1,0l0.7-0.6c0.2,0.1,0.5,0.2,0.8,0.3l0.1,0.9c0,0,0,0.1,0.1,0.1l1.3-0.1c0,0,0.1,0,0.1-0.1
			l0.1-0.9c0.3-0.1,0.5-0.2,0.8-0.4l0.7,0.5c0,0,0.1,0,0.1,0l0.9-1c0,0,0-0.1,0-0.1l-0.5-0.7c0.1-0.2,0.2-0.5,0.3-0.8l0.9-0.1V23.8z
			 M30.8,26.3c-1.7,0.8-3.4-1-2.6-2.9c0.2-0.4,0.5-0.8,0.9-1c1.7-0.7,3.4,1.1,2.6,2.9C31.5,25.8,31.2,26.1,30.8,26.3z"/>
	</g>
	<ellipse class="st2" cx="29.9" cy="24.5" rx="1" ry="1.1"/>
	<path class="st2" d="M0,5.6v25.6l19.8,4.2V0L0,5.6z M14,19.5c0,0.8-0.7,1.4-1.5,1.4l-6.8-0.5C5,20.3,4.5,19.7,4.5,19v-1.6
		c0-0.7,0.5-1.3,1.2-1.4l6.8-0.7c0.8-0.1,1.5,0.5,1.5,1.4V19.5z"/>
</g>
</svg>
