<svg width="196" height="28" viewBox="0 0 196 28" fill="none" xmlns="http://www.w3.org/2000/svg">
<path fill-rule="evenodd" clip-rule="evenodd" d="M38.7188 19.5683L41.0655 16.9399C41.3622 17.6606 41.8388 18.2276 42.4952 18.6409C43.1515 19.0546 43.8888 19.2613 44.7071 19.2613C45.6961 19.2613 46.4783 19.0301 47.0538 18.5676C47.629 18.1053 47.9172 17.4827 47.9172 16.7C47.9172 15.7751 46.9594 14.855 45.0445 13.9389C44.424 13.6451 43.9338 13.4052 43.5742 13.2183C41.848 12.3291 40.6517 11.4598 39.9864 10.6103C39.3209 9.76128 38.9886 8.74958 38.9886 7.57545C38.9886 5.96624 39.6335 4.64314 40.924 3.60698C42.214 2.57109 43.8888 2.05273 45.9481 2.05273C47.1436 2.05273 48.1754 2.25942 49.0432 2.67306C49.9107 3.0867 50.6774 3.73368 51.3429 4.61428L48.8478 6.97546C48.5511 6.40626 48.1576 5.98135 47.6677 5.70129C47.1772 5.42122 46.5862 5.28133 45.8939 5.28133C45.0578 5.28133 44.3834 5.48801 43.871 5.90137C43.3583 6.31501 43.1021 6.85096 43.1021 7.50894C43.1021 8.5407 44.1183 9.48341 46.1502 10.3368C46.5548 10.5058 46.8649 10.6394 47.0811 10.7373C48.7534 11.4931 49.9919 12.347 50.7966 13.2985C51.6011 14.25 52.004 15.3351 52.004 16.5532C52.004 18.3853 51.3718 19.8464 50.1089 20.9356C48.8453 22.0248 47.1483 22.5696 45.0172 22.5696C43.5067 22.5696 42.2117 22.3115 41.133 21.7959C40.054 21.2803 39.2492 20.5374 38.7188 19.5683Z" fill="#0973EB"/>
<path fill-rule="evenodd" clip-rule="evenodd" d="M56.9727 22.0502H53.1288V8.96374H56.9727V11.0179C57.6021 10.1557 58.2743 9.52414 58.9893 9.12397C59.704 8.7238 60.5154 8.52344 61.4238 8.52344C62.5206 8.52344 63.4132 8.74606 64.1007 9.19048C64.7887 9.63518 65.2764 10.3066 65.5643 11.2048C66.1756 10.3157 66.8703 9.64645 67.6481 9.19708C68.4259 8.74826 69.2776 8.52344 70.2038 8.52344C71.1389 8.52344 71.9325 8.69467 72.5847 9.03712C73.2363 9.37958 73.7421 9.89326 74.1019 10.5779C74.2906 10.9514 74.4257 11.3738 74.5065 11.8452C74.5874 12.3166 74.6277 13.0323 74.6277 13.9928V14.4062V22.0502H70.7837V15.5803C70.7837 13.9884 70.6198 12.93 70.2916 12.4053C69.9632 11.8809 69.3902 11.6185 68.5718 11.6185C67.5828 11.6185 66.8659 11.9832 66.4207 12.7121C65.9756 13.4415 65.7532 14.6332 65.7532 16.2872V22.0502H61.9093V15.5803C61.9093 14.0418 61.7562 13.0012 61.4505 12.4589C61.1449 11.9164 60.6188 11.6451 59.8727 11.6451C58.8562 11.6451 58.1193 12.012 57.6608 12.7456C57.202 13.4791 56.9727 14.6596 56.9727 16.2872V22.0502Z" fill="#0973EB"/>
<path fill-rule="evenodd" clip-rule="evenodd" d="M86.3904 15.4869C86.3904 14.313 86.0914 13.3838 85.4934 12.6986C84.8954 12.0142 84.0887 11.6718 83.0728 11.6718C82.0296 11.6718 81.209 12.0118 80.611 12.6923C80.013 13.3725 79.7143 14.3042 79.7143 15.4869C79.7143 16.6698 80.0086 17.59 80.5977 18.2482C81.1862 18.9065 82.0024 19.2355 83.0455 19.2355C84.1065 19.2355 84.929 18.9065 85.514 18.2482C86.0981 17.59 86.3904 16.6698 86.3904 15.4869ZM89.8973 22.0502H86.1748L86.2287 20.1691C85.7071 20.9964 85.0799 21.6033 84.3471 21.99C83.6144 22.3769 82.7221 22.5702 81.67 22.5702C79.9166 22.5702 78.5024 21.9257 77.4282 20.6361C76.3536 19.3468 75.8162 17.6436 75.8162 15.527C75.8162 13.3214 76.3447 11.6028 77.4009 10.3712C78.4574 9.13936 79.9252 8.52344 81.8048 8.52344C82.7846 8.52344 83.6458 8.74139 84.3877 9.17702C85.1294 9.61292 85.7518 10.2621 86.2556 11.1248V8.96374H89.8973V22.0502Z" fill="#0973EB"/>
<path fill-rule="evenodd" clip-rule="evenodd" d="M99.637 12.5186C99.3447 12.4609 99.0368 12.432 98.713 12.432C97.5443 12.432 96.7034 12.7277 96.191 13.3189C95.6783 13.9104 95.4221 14.8998 95.4221 16.2872V22.0502H91.5781V8.96346H95.3682L95.2873 12.3254C95.6736 11.0537 96.229 10.1021 96.9529 9.47055C97.6765 8.83923 98.5735 8.52344 99.6437 8.52344" fill="#0973EB"/>
<path fill-rule="evenodd" clip-rule="evenodd" d="M102.473 22.0505V11.939H100.626V8.96409H102.473V4.61523H106.317V8.96409H108.165V11.939H106.317V22.0505H102.473Z" fill="#0973EB"/>
<path fill-rule="evenodd" clip-rule="evenodd" d="M108.895 22.0494L111.903 2.51953H116.327L120.13 14.0187C120.211 14.2587 120.299 14.6105 120.393 15.0725C120.488 15.535 120.575 16.0644 120.656 16.6603C120.728 16.0553 120.809 15.5152 120.899 15.0392C120.989 14.5637 121.074 14.2144 121.155 13.9921L125.026 2.51953H129.383L132.404 22.0494H128.398L126.955 10.2704C126.847 9.39887 126.775 8.74062 126.739 8.29593C126.703 7.8515 126.685 7.43786 126.685 7.05528C126.685 6.8508 126.687 6.69771 126.692 6.59519C126.697 6.49295 126.703 6.4017 126.712 6.32145C126.577 7.08661 126.449 7.74706 126.328 8.30252C126.206 8.85853 126.096 9.27877 125.997 9.56323L121.816 22.0494H119.442L115.329 9.56323C115.293 9.4478 115.214 9.1276 115.093 8.60265C114.971 8.07825 114.803 7.31336 114.587 6.30853V6.88185C114.587 7.78911 114.506 8.90086 114.344 10.2168L114.331 10.2704L112.901 22.0494H108.895Z" fill="#0973EB"/>
<path fill-rule="evenodd" clip-rule="evenodd" d="M143.432 15.5267C143.432 14.4595 143.117 13.6083 142.487 12.9721C141.858 12.3366 141.013 12.0184 139.952 12.0184C138.89 12.0184 138.05 12.3341 137.429 12.9655C136.809 13.5971 136.499 14.4507 136.499 15.5267C136.499 16.594 136.809 17.4476 137.429 18.088C138.05 18.7281 138.89 19.0483 139.952 19.0483C141.004 19.0483 141.847 18.7281 142.481 18.088C143.115 17.4476 143.432 16.594 143.432 15.5267ZM147.343 15.5534C147.343 17.5633 146.648 19.2352 145.259 20.5693C143.87 21.9031 142.109 22.5702 139.979 22.5702C137.83 22.5702 136.058 21.9031 134.664 20.5693C133.271 19.2352 132.574 17.5633 132.574 15.5534C132.574 13.5523 133.275 11.8807 134.678 10.5378C136.081 9.19488 137.848 8.52344 139.979 8.52344C142.119 8.52344 143.881 9.18609 145.266 10.5111C146.65 11.8361 147.343 13.5171 147.343 15.5534Z" fill="#0973EB"/>
<path fill-rule="evenodd" clip-rule="evenodd" d="M151.851 22.0513L146.469 8.96484H150.907L153.146 15.7683C153.325 16.3197 153.469 16.8309 153.577 17.3022C153.685 17.7739 153.761 18.2359 153.806 18.6896C153.915 18.0047 154.022 17.4223 154.13 16.9419C154.238 16.4618 154.364 16.0261 154.508 15.6348L156.76 8.96484H161.13L155.695 22.0513H151.851Z" fill="#0973EB"/>
<mask id="mask0" style="mask-type:alpha" maskUnits="userSpaceOnUse" x="0" y="0" width="196" height="28">
<path d="M0 28H196V0H0V28Z" fill="white"/>
</mask>
<g mask="url(#mask0)">
<path fill-rule="evenodd" clip-rule="evenodd" d="M162.114 22.0498H165.944V8.96341H162.114V22.0498ZM161.777 3.58774C161.777 2.98308 161.997 2.46253 162.437 2.0269C162.878 1.591 163.404 1.37305 164.016 1.37305C164.636 1.37305 165.169 1.5888 165.614 2.0203C166.059 2.45153 166.281 2.97374 166.281 3.58774C166.281 4.20119 166.059 4.72587 165.614 5.1615C165.169 5.5974 164.636 5.81535 164.016 5.81535C163.404 5.81535 162.878 5.59328 162.437 5.1483C161.997 4.70361 161.777 4.1836 161.777 3.58774Z" fill="#0973EB"/>
<path fill-rule="evenodd" clip-rule="evenodd" d="M167.629 22.0502V8.96374H171.392V11.0179C172.084 10.1643 172.828 9.53541 173.624 9.13029C174.42 8.726 175.303 8.52344 176.274 8.52344C177.299 8.52344 178.16 8.69467 178.857 9.03712C179.554 9.37958 180.104 9.90205 180.509 10.6043C180.707 10.9695 180.849 11.3807 180.934 11.8386C181.019 12.2968 181.062 13.0147 181.062 13.9928V14.4062V22.0502H177.218V15.5803C177.218 13.9708 177.029 12.9077 176.652 12.3919C176.274 11.8763 175.627 11.6185 174.71 11.6185C174.179 11.6185 173.691 11.7273 173.246 11.945C172.801 12.1632 172.43 12.4718 172.134 12.872C171.9 13.1837 171.731 13.5393 171.628 13.9395C171.525 14.3397 171.473 14.949 171.473 15.7672V16.2872V22.0502H167.629Z" fill="#0973EB"/>
<path fill-rule="evenodd" clip-rule="evenodd" d="M192.52 15.4869C192.52 14.3309 192.224 13.4192 191.63 12.7522C191.036 12.0851 190.227 11.7518 189.202 11.7518C188.15 11.7518 187.328 12.0832 186.734 12.7453C186.141 13.4082 185.844 14.3221 185.844 15.4869C185.844 16.6519 186.136 17.5592 186.721 18.2081C187.305 18.8576 188.123 19.1819 189.175 19.1819C190.227 19.1819 191.048 18.8576 191.637 18.2081C192.225 17.5592 192.52 16.6519 192.52 15.4869ZM196 21.8369C196 23.2149 195.917 24.1846 195.75 24.745C195.584 25.3051 195.299 25.7897 194.894 26.1989C194.318 26.8124 193.581 27.2659 192.682 27.5597C191.783 27.8529 190.69 27.9997 189.405 27.9997C187.256 27.9997 185.624 27.6616 184.509 26.9858C183.394 26.31 182.787 25.2829 182.688 23.9043H186.91C186.972 24.4113 187.206 24.7849 187.611 25.0248C188.015 25.265 188.613 25.3851 189.405 25.3851C190.448 25.3851 191.201 25.1182 191.664 24.5848C192.127 24.051 192.358 23.1619 192.358 21.9169V20.0493C191.846 20.8584 191.228 21.459 190.504 21.8498C189.78 22.2412 188.924 22.4369 187.934 22.4369C186.118 22.4369 184.666 21.808 183.578 20.5495C182.49 19.291 181.946 17.5947 181.946 15.4602C181.946 13.2903 182.476 11.5915 183.537 10.3643C184.598 9.13689 186.064 8.52344 187.934 8.52344C188.896 8.52344 189.753 8.74359 190.504 9.18361C191.254 9.62391 191.882 10.2709 192.386 11.1248V8.96374H196V21.8369Z" fill="#0973EB"/>
<path fill-rule="evenodd" clip-rule="evenodd" d="M12.4491 0V24.626L0 12.313L12.4491 0Z" fill="#31B3F5"/>
<path fill-rule="evenodd" clip-rule="evenodd" d="M19.674 24.626V21.1547H12.4491V14.5585H17.7289V10.161H12.4491V3.83957H19.674V0L32.1232 12.313L19.674 24.626Z" fill="#0973EB"/>
</g>
</svg>
