<svg width="1301" height="191" viewBox="0 0 1301 191" fill="none" xmlns="http://www.w3.org/2000/svg">
<path d="M95.119 84.3042L170.769 8.78167C173.848 5.70811 171.648 0 167.251 0H92.0394C88.0809 0 84.1224 1.75634 81.0434 4.39085L1.43514 84.3042C-1.64366 87.378 0.5557 93.0858 4.95398 93.0858H74.0071C78.405 93.0858 81.0446 98.7941 77.5256 101.868L2.31459 177.391C-0.764217 180.464 1.43514 186.172 5.83343 186.172H81.0434C85.0019 186.172 88.9603 184.416 92.0394 181.781L171.648 101.868C174.727 98.7941 172.528 93.0858 168.13 93.0858H99.0769C94.239 93.0858 92.04 87.378 95.119 84.3042Z" fill="#F1F1F1"/>
<path d="M260.932 146.216C253.894 143.142 248.177 138.752 244.219 133.043C240.26 127.335 238.061 121.188 237.621 114.601H261.811C262.251 119.431 264.451 123.383 268.849 126.457C272.807 129.531 278.085 131.287 284.682 131.287C291.28 131.287 296.118 129.969 300.076 127.335C303.595 124.7 305.354 121.627 305.354 117.675C305.354 113.284 303.155 110.211 299.197 108.454C295.238 106.259 288.641 104.063 280.284 101.868C271.927 99.6729 264.89 97.477 259.612 95.2818C254.334 93.0866 249.496 89.5735 245.977 85.183C242.019 80.7919 240.26 74.6449 240.26 67.6193C240.26 61.4723 242.02 56.2033 245.538 51.3733C249.057 46.5435 254.334 42.5917 260.932 39.5181C267.529 36.4445 275.006 35.1272 283.803 35.1272C296.558 35.1272 307.114 38.2008 314.591 44.7871C322.508 51.3733 326.466 60.1551 327.345 71.1324H304.035C303.596 66.302 301.396 61.9114 297.877 59.2769C294.359 56.2033 289.081 54.886 282.923 54.886C276.766 54.886 271.928 56.2033 268.849 58.3987C265.771 60.5941 264.01 63.6675 264.01 67.6193C264.01 70.6931 264.89 73.3276 267.089 75.0842C269.288 77.2794 271.927 78.5967 275.006 79.914C278.085 81.2312 282.923 82.5485 289.081 84.305C297.437 86.5003 304.035 88.6955 309.313 90.8907C314.591 93.0866 318.988 96.5991 322.947 100.99C326.905 105.381 328.665 111.089 328.665 118.553C328.665 125.14 326.906 130.848 323.388 135.678C319.869 140.507 315.031 144.459 308.434 147.533C301.836 150.606 294.358 151.924 285.562 151.924C275.886 151.046 267.969 149.289 260.932 146.216Z" fill="#F1F1F1"/>
<path d="M442.587 36.8833V149.289H419.275V136.117C415.757 140.946 410.918 144.459 404.761 147.093C399.043 149.728 392.445 151.045 385.848 151.045C377.051 151.045 369.135 149.289 362.097 145.338C355.061 141.824 349.342 136.117 345.384 129.091C341.426 122.066 339.227 113.284 339.227 102.746V36.8833H362.537V99.6726C362.537 109.771 365.176 117.675 370.014 122.944C374.853 128.213 381.89 130.848 390.686 130.848C399.483 130.848 406.52 128.213 411.358 122.944C416.636 117.675 418.835 109.771 418.835 99.6726V36.8833H442.587Z" fill="#F1F1F1"/>
<path d="M493.601 39.9558C500.199 36.4431 508.116 34.6868 516.912 34.6868C526.589 34.6868 535.825 37.3213 543.742 41.7121C551.659 46.5421 558.256 53.1283 562.654 61.9101C567.492 70.6919 569.692 80.7907 569.692 91.7675C569.692 103.184 567.492 113.283 562.654 122.065C557.816 130.846 551.659 137.872 543.742 142.701C535.825 147.532 526.589 150.166 516.912 150.166C508.116 150.166 500.639 148.41 494.041 144.897C487.444 141.384 481.726 136.994 477.768 131.725V185.293H454.457V36.8822H477.768V53.5674C481.286 47.8593 487.004 43.4685 493.601 39.9558ZM541.103 72.4479C538.024 66.7401 533.626 62.3491 528.348 59.7146C523.07 56.641 517.352 55.3237 511.635 55.3237C505.917 55.3237 500.199 56.641 494.921 59.7146C489.643 62.7882 485.245 67.1788 482.166 72.8872C479.087 78.5955 477.328 85.1818 477.328 93.0848C477.328 100.988 479.087 107.575 482.166 113.283C485.245 118.991 489.643 123.382 494.921 126.456C500.199 129.529 505.917 130.846 511.635 130.846C517.792 130.846 523.07 129.529 528.348 126.456C533.626 123.382 538.024 118.991 541.103 113.283C544.181 107.575 545.942 100.55 545.942 93.0848C545.942 84.7425 544.621 78.1562 541.103 72.4479Z" fill="#F1F1F1"/>
<path d="M691.519 101.429H605.315C606.194 110.21 609.272 117.675 615.43 122.944C621.587 128.213 628.625 131.286 637.421 131.286C650.174 131.286 658.975 126.017 663.809 115.479H688.879C685.365 126.017 679.204 134.36 670.41 140.946C661.609 147.533 650.614 151.045 636.982 151.045C626.427 151.045 616.749 148.85 607.953 144.02C599.596 139.19 592.56 132.604 587.722 123.822C582.883 115.041 580.684 104.941 580.684 93.525C580.684 82.1089 582.883 71.5708 587.722 62.7892C592.56 54.0075 599.157 47.4212 607.514 42.5913C615.871 37.7613 625.986 35.5659 636.982 35.5659C647.54 35.5659 657.215 37.7613 665.569 42.5913C673.93 47.4212 680.525 53.5684 684.925 61.911C689.759 70.2536 691.959 79.9137 691.959 90.8905C692.399 94.4036 691.959 98.3554 691.519 101.429ZM668.21 82.9869C668.21 74.2053 665.129 67.619 658.975 62.3501C652.815 57.0811 645.34 54.4466 636.542 54.4466C628.625 54.4466 621.588 57.0811 615.87 61.911C610.153 67.1797 606.633 73.766 605.754 82.5482H668.21V82.9869Z" fill="#F1F1F1"/>
<path d="M740.794 39.5167C746.508 36.4431 753.108 34.6868 761.023 34.6868V58.8364H755.309C746.068 58.8364 739.473 61.0318 734.633 65.8615C729.799 70.6919 727.599 78.5955 727.599 90.0116V149.288H704.289V36.8822H727.599V53.1283C730.673 47.4202 735.073 43.0294 740.794 39.5167Z" fill="#F1F1F1"/>
<path d="M932.988 40.3949C940.022 43.9075 945.736 49.6156 949.696 56.641C953.657 63.6663 955.857 72.4479 955.857 82.5473V149.288H932.548V86.0598C932.548 75.961 929.907 68.0574 925.067 62.7882C920.226 57.5192 913.192 54.8847 904.397 54.8847C895.597 54.8847 888.562 57.5192 883.722 62.7882C878.448 68.0574 876.247 75.961 876.247 86.0598V149.288H852.938V86.0598C852.938 75.961 850.298 68.0574 845.457 62.7882C840.623 57.5192 833.582 54.8847 824.788 54.8847C815.987 54.8847 808.953 57.5192 804.112 62.7882C798.838 68.0574 796.638 75.961 796.638 86.0598V149.288H773.328V36.8822H796.638V49.6156C800.598 44.7858 805.432 41.2731 811.153 38.6386C816.867 36.004 823.468 34.6868 830.062 34.6868C838.863 34.6868 847.217 36.4431 854.252 40.3949C861.292 44.3467 867.007 49.6156 870.527 57.0801C874.047 50.4939 879.328 44.7858 886.362 40.834C893.403 36.8822 901.317 34.6868 909.672 34.6868C918.033 34.6868 925.947 36.8822 932.988 40.3949Z" fill="#F1F1F1"/>
<path d="M994.562 143.581C985.767 138.751 979.166 132.164 974.332 123.383C969.492 114.601 966.852 104.502 966.852 93.0863C966.852 81.6696 969.492 71.5708 974.332 62.7892C979.166 54.0075 986.207 46.9821 995.002 42.5913C1003.8 37.7613 1013.48 35.5659 1024.03 35.5659C1034.59 35.5659 1044.7 37.7613 1053.06 42.5913C1061.86 47.4212 1068.46 54.0075 1073.73 62.7892C1078.57 71.5708 1081.21 81.6696 1081.21 93.0863C1081.21 104.502 1078.57 114.601 1073.29 123.383C1068.02 132.164 1060.98 139.19 1052.18 144.02C1043.39 148.85 1033.27 151.045 1022.71 151.045C1013.04 151.045 1003.36 148.411 994.562 143.581ZM1040.31 126.457C1045.58 123.383 1049.98 119.431 1053.06 113.723C1056.14 108.015 1057.9 100.989 1057.9 93.0863C1057.9 84.7435 1056.14 78.1571 1053.06 72.4488C1049.98 66.7411 1045.58 62.3501 1040.75 59.7156C1035.47 56.642 1030.19 55.3247 1024.03 55.3247C1017.88 55.3247 1012.6 56.642 1007.32 59.7156C1002.04 62.7892 998.082 66.7411 995.002 72.4488C991.921 78.1571 990.608 85.1828 990.608 93.0863C990.608 105.38 993.682 114.601 999.842 121.188C1006 127.774 1013.92 131.286 1023.15 131.286C1029.75 130.848 1035.03 129.53 1040.31 126.457Z" fill="#F1F1F1"/>
<path d="M1133.99 128.212L1166.1 36.4429H1190.73L1147.63 148.849H1119.92L1077.25 36.4429H1102.32L1133.99 128.212Z" fill="#F1F1F1"/>
<path d="M1295.85 101.429H1209.64C1210.52 110.21 1213.6 117.675 1219.76 122.944C1225.91 128.213 1232.95 131.286 1241.75 131.286C1254.5 131.286 1263.3 126.017 1268.14 115.479H1293.21C1289.69 126.017 1283.53 134.36 1274.74 140.946C1265.94 147.533 1254.94 151.045 1241.31 151.045C1230.75 151.045 1221.08 148.85 1212.28 144.02C1203.92 139.19 1196.89 132.604 1192.05 123.822C1187.21 115.041 1185.01 104.941 1185.01 93.525C1185.01 82.1089 1187.21 71.5708 1192.05 62.7892C1196.89 54.0075 1203.48 47.4212 1211.84 42.5913C1220.2 37.7613 1230.31 35.5659 1241.31 35.5659C1251.86 35.5659 1261.54 37.7613 1269.9 42.5913C1278.25 47.4212 1284.85 53.5684 1289.25 61.911C1294.09 70.2536 1296.29 79.9137 1296.29 90.8905C1296.73 94.4036 1296.29 98.3554 1295.85 101.429ZM1272.54 82.9869C1272.54 74.2053 1269.46 67.619 1263.3 62.3501C1257.14 57.0811 1249.67 54.4466 1240.87 54.4466C1232.95 54.4466 1225.91 57.0811 1220.2 61.911C1214.48 67.1797 1210.96 73.766 1210.08 82.5482H1272.54V82.9869Z" fill="#F1F1F1"/>
</svg>
