<svg xmlns="http://www.w3.org/2000/svg" viewBox="0 0 246 88">
<g transform="translate(-13 8) scale(0.72)">
<path fill="#2BA8E0" fill-rule="evenodd" d="M23.6 25.6 Q23.6 17.6 31.6 17.6 L59.6 17.6 Q67.6 17.6 67.6 25.6 L67.6 73.6 L23.6 73.6 Z M40.1 30.1 Q36.1 30.1 36.1 34.1 L36.1 73.6 L55.1 73.6 L55.1 34.1 Q55.1 30.1 51.1 30.1 Z"></path>
<path fill="#FFFFFF" fill-rule="evenodd" d="M32.4 34.4 Q32.4 26.4 40.4 26.4 L68.4 26.4 Q76.4 26.4 76.4 34.4 L76.4 82.4 L32.4 82.4 Z M48.9 38.9 Q44.9 38.9 44.9 42.9 L44.9 82.4 L63.9 82.4 L63.9 42.9 Q63.9 38.9 59.9 38.9 Z"></path>
</g>
<text x="56" y="62" font-family="Manrope, &#39;Helvetica Neue&#39;, Helvetica, Arial, sans-serif" font-weight="700" font-size="52" letter-spacing="-0.04em" fill="#FFFFFF">movena</text>
</svg>
